<svg width="24" height="24" viewBox="0 0 24 24" fill="none" xmlns="http://www.w3.org/2000/svg">
  <path d="M12 18C12.5523 18 13 17.5523 13 17C13 16.4477 12.5523 16 12 16C11.4477 16 11 16.4477 11 17C11 17.5523 11.4477 18 12 18Z" fill="white"/>
  <path d="M8 13C9.22517 11.7252 10.9552 11 12.814 11C14.6728 11 16.4028 11.7252 17.628 13" stroke="white" stroke-width="2" stroke-linecap="round" stroke-linejoin="round"/>
  <path d="M5 9C7.05436 6.94564 9.85786 5.85 12.814 5.85C15.7701 5.85 18.5736 6.94564 20.628 9" stroke="white" stroke-width="2" stroke-linecap="round" stroke-linejoin="round"/>
  <path d="M2 5C4.98311 2.01689 8.78134 0.7 12.814 0.7C16.8466 0.7 20.6449 2.01689 23.628 5" stroke="white" stroke-width="2" stroke-linecap="round" stroke-linejoin="round"/>
</svg> 