<?xml version="1.0" encoding="UTF-8"?>
<svg xmlns="http://www.w3.org/2000/svg" xmlns:xlink="http://www.w3.org/1999/xlink" width="25px" height="24px" viewBox="0 0 25 24" version="1.1">
<g id="surface1">
<path style=" stroke:none;fill-rule:nonzero;fill:rgb(100%,100%,100%);fill-opacity:1;" d="M 9.5 2 C 9.5 1.449219 9.949219 1 10.5 1 L 14.5 1 C 15.050781 1 15.5 1.449219 15.5 2 L 15.5 8.269531 L 20.242188 17.070312 C 21.414062 19.023438 20.023438 21.5 17.671875 21.5 L 7.328125 21.5 C 4.976562 21.5 3.585938 19.023438 4.757812 17.070312 L 9.5 8.269531 Z M 11 3 L 11 8.5 C 11 8.726562 10.933594 8.949219 10.808594 9.136719 L 7.5 14.5 L 17.5 14.5 L 14.191406 9.136719 C 14.066406 8.949219 14 8.726562 14 8.5 L 14 3 Z M 6.382812 16.5 L 5.921875 17.308594 C 5.335938 18.308594 6.023438 19.5 7.328125 19.5 L 17.671875 19.5 C 18.976562 19.5 19.664062 18.308594 19.078125 17.308594 L 18.617188 16.5 Z M 6.382812 16.5 "/>
</g>
</svg> 