<?xml version="1.0" encoding="UTF-8"?>
<svg xmlns="http://www.w3.org/2000/svg" xmlns:xlink="http://www.w3.org/1999/xlink" width="25px" height="24px" viewBox="0 0 25 24" version="1.1">
<g id="surface1">
<path style="stroke:none;fill-rule:nonzero;fill:rgb(100%,100%,100%);fill-opacity:1;" d="M 20.914062 4.59375 C 19.363281 3.042969 16.863281 3.042969 15.3125 4.59375 L 12.5 7.40625 L 9.6875 4.59375 C 8.136719 3.042969 5.636719 3.042969 4.085938 4.59375 C 2.535156 6.144531 2.535156 8.644531 4.085938 10.195312 L 12.5 18.609375 L 20.914062 10.195312 C 22.464844 8.644531 22.464844 6.144531 20.914062 4.59375 Z M 19.5 8.78125 L 12.5 15.78125 L 5.5 8.78125 C 4.71875 8 4.71875 6.789062 5.5 6.007812 C 5.890625 5.617188 6.410156 5.421875 6.929688 5.421875 C 7.449219 5.421875 7.96875 5.617188 8.359375 6.007812 L 12.5 10.148438 L 16.640625 6.007812 C 17.03125 5.617188 17.550781 5.421875 18.070312 5.421875 C 18.589844 5.421875 19.109375 5.617188 19.5 6.007812 C 20.28125 6.789062 20.28125 8 19.5 8.78125 Z M 19.5 8.78125"/>
</g>
</svg>