<svg width="25" height="24" viewBox="0 0 25 24" fill="none" xmlns="http://www.w3.org/2000/svg">
<path d="M9.5 2C9.5 1.44772 9.94772 1 10.5 1H14.5C15.0523 1 15.5 1.44772 15.5 2V8.26756L20.2426 17.0711C21.4142 19.0237 20.0237 21.5 17.6716 21.5H7.32843C4.97631 21.5 3.58579 19.0237 4.75736 17.0711L9.5 8.26756V2ZM11 3V8.5C11 8.72761 10.9329 8.94964 10.8072 9.13647L7.5 14.5H17.5L14.1928 9.13647C14.0671 8.94964 14 8.72761 14 8.5V3H11ZM6.38197 16.5L5.92264 17.3094C5.33686 18.3094 6.02212 19.5 7.32843 19.5H17.6716C18.9779 19.5 19.6631 18.3094 19.0774 17.3094L18.618 16.5H6.38197Z" fill="#343330"/>
</svg> 