<svg width="25" height="24" viewBox="0 0 25 24" fill="none" xmlns="http://www.w3.org/2000/svg">
<path d="M21.4099 4.59076C20.6227 3.80369 19.6822 3.18731 18.6475 2.78016C17.6129 2.37301 16.5062 2.18374 15.3959 2.22319C14.2856 2.26264 13.1947 2.52985 12.1909 3.00905C11.1871 3.48826 10.2911 4.16994 9.55993 5.01276C8.82876 4.16994 7.93281 3.48826 6.929 3.00905C5.92519 2.52985 4.83431 2.26264 3.72398 2.22319C2.61365 2.18374 1.50699 2.37301 0.472345 2.78016C-0.562301 3.18731 -1.50282 3.80369 -2.29001 4.59076C-4.69001 6.99076 -4.69001 10.8408 -2.29001 13.2408L9.55993 25.0908L21.4099 13.2408C23.8099 10.8408 23.8099 6.99076 21.4099 4.59076ZM19.9999 11.8308L9.55993 22.2708L-0.880007 11.8308C-2.36001 10.3508 -2.36001 7.91076 -0.880007 6.43076C-0.140007 5.69076 0.839993 5.32076 1.81999 5.32076C2.79999 5.32076 3.77999 5.69076 4.51999 6.43076L9.55993 11.4708L14.5999 6.43076C15.3399 5.69076 16.3199 5.32076 17.2999 5.32076C18.2799 5.32076 19.2599 5.69076 19.9999 6.43076C21.4799 7.91076 21.4799 10.3508 19.9999 11.8308Z" fill="#343330" transform="translate(2.5, -1)"/>
</svg>